<?xml version="1.0" encoding="utf-8"?>
<!DOCTYPE svg PUBLIC "-//W3C//DTD SVG 20010904//EN" "http://www.w3.org/TR/2001/REC-SVG-20010904/DTD/svg10.dtd">
<svg xmlns="http://www.w3.org/2000/svg" xml:space="preserve" xmlns:xlink="http://www.w3.org/1999/xlink" width="612" height="612" viewBox="0 0 612 612">
<desc></desc>
<rect width="612" height="612" fill="#ffffff" cx="0" cy="0" />
<defs>
<rect id="p" width="12" height="12" />
</defs>
<g fill="#000000">
<use x="12" y="12" xlink:href="#p" />
<use x="24" y="12" xlink:href="#p" />
<use x="36" y="12" xlink:href="#p" />
<use x="48" y="12" xlink:href="#p" />
<use x="60" y="12" xlink:href="#p" />
<use x="72" y="12" xlink:href="#p" />
<use x="84" y="12" xlink:href="#p" />
<use x="108" y="12" xlink:href="#p" />
<use x="132" y="12" xlink:href="#p" />
<use x="144" y="12" xlink:href="#p" />
<use x="168" y="12" xlink:href="#p" />
<use x="180" y="12" xlink:href="#p" />
<use x="192" y="12" xlink:href="#p" />
<use x="204" y="12" xlink:href="#p" />
<use x="216" y="12" xlink:href="#p" />
<use x="240" y="12" xlink:href="#p" />
<use x="288" y="12" xlink:href="#p" />
<use x="336" y="12" xlink:href="#p" />
<use x="348" y="12" xlink:href="#p" />
<use x="360" y="12" xlink:href="#p" />
<use x="372" y="12" xlink:href="#p" />
<use x="396" y="12" xlink:href="#p" />
<use x="408" y="12" xlink:href="#p" />
<use x="420" y="12" xlink:href="#p" />
<use x="432" y="12" xlink:href="#p" />
<use x="444" y="12" xlink:href="#p" />
<use x="456" y="12" xlink:href="#p" />
<use x="492" y="12" xlink:href="#p" />
<use x="516" y="12" xlink:href="#p" />
<use x="528" y="12" xlink:href="#p" />
<use x="540" y="12" xlink:href="#p" />
<use x="552" y="12" xlink:href="#p" />
<use x="564" y="12" xlink:href="#p" />
<use x="576" y="12" xlink:href="#p" />
<use x="588" y="12" xlink:href="#p" />
<use x="12" y="24" xlink:href="#p" />
<use x="84" y="24" xlink:href="#p" />
<use x="108" y="24" xlink:href="#p" />
<use x="120" y="24" xlink:href="#p" />
<use x="144" y="24" xlink:href="#p" />
<use x="192" y="24" xlink:href="#p" />
<use x="228" y="24" xlink:href="#p" />
<use x="264" y="24" xlink:href="#p" />
<use x="312" y="24" xlink:href="#p" />
<use x="360" y="24" xlink:href="#p" />
<use x="384" y="24" xlink:href="#p" />
<use x="432" y="24" xlink:href="#p" />
<use x="456" y="24" xlink:href="#p" />
<use x="468" y="24" xlink:href="#p" />
<use x="480" y="24" xlink:href="#p" />
<use x="492" y="24" xlink:href="#p" />
<use x="516" y="24" xlink:href="#p" />
<use x="588" y="24" xlink:href="#p" />
<use x="12" y="36" xlink:href="#p" />
<use x="36" y="36" xlink:href="#p" />
<use x="48" y="36" xlink:href="#p" />
<use x="60" y="36" xlink:href="#p" />
<use x="84" y="36" xlink:href="#p" />
<use x="120" y="36" xlink:href="#p" />
<use x="144" y="36" xlink:href="#p" />
<use x="168" y="36" xlink:href="#p" />
<use x="180" y="36" xlink:href="#p" />
<use x="192" y="36" xlink:href="#p" />
<use x="204" y="36" xlink:href="#p" />
<use x="228" y="36" xlink:href="#p" />
<use x="240" y="36" xlink:href="#p" />
<use x="252" y="36" xlink:href="#p" />
<use x="276" y="36" xlink:href="#p" />
<use x="288" y="36" xlink:href="#p" />
<use x="312" y="36" xlink:href="#p" />
<use x="348" y="36" xlink:href="#p" />
<use x="360" y="36" xlink:href="#p" />
<use x="420" y="36" xlink:href="#p" />
<use x="432" y="36" xlink:href="#p" />
<use x="480" y="36" xlink:href="#p" />
<use x="492" y="36" xlink:href="#p" />
<use x="516" y="36" xlink:href="#p" />
<use x="540" y="36" xlink:href="#p" />
<use x="552" y="36" xlink:href="#p" />
<use x="564" y="36" xlink:href="#p" />
<use x="588" y="36" xlink:href="#p" />
<use x="12" y="48" xlink:href="#p" />
<use x="36" y="48" xlink:href="#p" />
<use x="48" y="48" xlink:href="#p" />
<use x="60" y="48" xlink:href="#p" />
<use x="84" y="48" xlink:href="#p" />
<use x="108" y="48" xlink:href="#p" />
<use x="120" y="48" xlink:href="#p" />
<use x="204" y="48" xlink:href="#p" />
<use x="228" y="48" xlink:href="#p" />
<use x="252" y="48" xlink:href="#p" />
<use x="264" y="48" xlink:href="#p" />
<use x="276" y="48" xlink:href="#p" />
<use x="312" y="48" xlink:href="#p" />
<use x="324" y="48" xlink:href="#p" />
<use x="336" y="48" xlink:href="#p" />
<use x="372" y="48" xlink:href="#p" />
<use x="396" y="48" xlink:href="#p" />
<use x="432" y="48" xlink:href="#p" />
<use x="480" y="48" xlink:href="#p" />
<use x="516" y="48" xlink:href="#p" />
<use x="540" y="48" xlink:href="#p" />
<use x="552" y="48" xlink:href="#p" />
<use x="564" y="48" xlink:href="#p" />
<use x="588" y="48" xlink:href="#p" />
<use x="12" y="60" xlink:href="#p" />
<use x="36" y="60" xlink:href="#p" />
<use x="48" y="60" xlink:href="#p" />
<use x="60" y="60" xlink:href="#p" />
<use x="84" y="60" xlink:href="#p" />
<use x="108" y="60" xlink:href="#p" />
<use x="120" y="60" xlink:href="#p" />
<use x="132" y="60" xlink:href="#p" />
<use x="156" y="60" xlink:href="#p" />
<use x="228" y="60" xlink:href="#p" />
<use x="276" y="60" xlink:href="#p" />
<use x="288" y="60" xlink:href="#p" />
<use x="300" y="60" xlink:href="#p" />
<use x="312" y="60" xlink:href="#p" />
<use x="324" y="60" xlink:href="#p" />
<use x="360" y="60" xlink:href="#p" />
<use x="372" y="60" xlink:href="#p" />
<use x="396" y="60" xlink:href="#p" />
<use x="408" y="60" xlink:href="#p" />
<use x="432" y="60" xlink:href="#p" />
<use x="516" y="60" xlink:href="#p" />
<use x="540" y="60" xlink:href="#p" />
<use x="552" y="60" xlink:href="#p" />
<use x="564" y="60" xlink:href="#p" />
<use x="588" y="60" xlink:href="#p" />
<use x="12" y="72" xlink:href="#p" />
<use x="84" y="72" xlink:href="#p" />
<use x="108" y="72" xlink:href="#p" />
<use x="120" y="72" xlink:href="#p" />
<use x="216" y="72" xlink:href="#p" />
<use x="252" y="72" xlink:href="#p" />
<use x="264" y="72" xlink:href="#p" />
<use x="276" y="72" xlink:href="#p" />
<use x="324" y="72" xlink:href="#p" />
<use x="336" y="72" xlink:href="#p" />
<use x="348" y="72" xlink:href="#p" />
<use x="360" y="72" xlink:href="#p" />
<use x="372" y="72" xlink:href="#p" />
<use x="408" y="72" xlink:href="#p" />
<use x="420" y="72" xlink:href="#p" />
<use x="432" y="72" xlink:href="#p" />
<use x="456" y="72" xlink:href="#p" />
<use x="468" y="72" xlink:href="#p" />
<use x="516" y="72" xlink:href="#p" />
<use x="588" y="72" xlink:href="#p" />
<use x="12" y="84" xlink:href="#p" />
<use x="24" y="84" xlink:href="#p" />
<use x="36" y="84" xlink:href="#p" />
<use x="48" y="84" xlink:href="#p" />
<use x="60" y="84" xlink:href="#p" />
<use x="72" y="84" xlink:href="#p" />
<use x="84" y="84" xlink:href="#p" />
<use x="108" y="84" xlink:href="#p" />
<use x="132" y="84" xlink:href="#p" />
<use x="156" y="84" xlink:href="#p" />
<use x="180" y="84" xlink:href="#p" />
<use x="204" y="84" xlink:href="#p" />
<use x="228" y="84" xlink:href="#p" />
<use x="252" y="84" xlink:href="#p" />
<use x="276" y="84" xlink:href="#p" />
<use x="300" y="84" xlink:href="#p" />
<use x="324" y="84" xlink:href="#p" />
<use x="348" y="84" xlink:href="#p" />
<use x="372" y="84" xlink:href="#p" />
<use x="396" y="84" xlink:href="#p" />
<use x="420" y="84" xlink:href="#p" />
<use x="444" y="84" xlink:href="#p" />
<use x="468" y="84" xlink:href="#p" />
<use x="492" y="84" xlink:href="#p" />
<use x="516" y="84" xlink:href="#p" />
<use x="528" y="84" xlink:href="#p" />
<use x="540" y="84" xlink:href="#p" />
<use x="552" y="84" xlink:href="#p" />
<use x="564" y="84" xlink:href="#p" />
<use x="576" y="84" xlink:href="#p" />
<use x="588" y="84" xlink:href="#p" />
<use x="156" y="96" xlink:href="#p" />
<use x="168" y="96" xlink:href="#p" />
<use x="180" y="96" xlink:href="#p" />
<use x="204" y="96" xlink:href="#p" />
<use x="216" y="96" xlink:href="#p" />
<use x="240" y="96" xlink:href="#p" />
<use x="276" y="96" xlink:href="#p" />
<use x="324" y="96" xlink:href="#p" />
<use x="336" y="96" xlink:href="#p" />
<use x="348" y="96" xlink:href="#p" />
<use x="360" y="96" xlink:href="#p" />
<use x="372" y="96" xlink:href="#p" />
<use x="384" y="96" xlink:href="#p" />
<use x="396" y="96" xlink:href="#p" />
<use x="432" y="96" xlink:href="#p" />
<use x="468" y="96" xlink:href="#p" />
<use x="480" y="96" xlink:href="#p" />
<use x="492" y="96" xlink:href="#p" />
<use x="48" y="108" xlink:href="#p" />
<use x="84" y="108" xlink:href="#p" />
<use x="120" y="108" xlink:href="#p" />
<use x="132" y="108" xlink:href="#p" />
<use x="144" y="108" xlink:href="#p" />
<use x="156" y="108" xlink:href="#p" />
<use x="192" y="108" xlink:href="#p" />
<use x="204" y="108" xlink:href="#p" />
<use x="216" y="108" xlink:href="#p" />
<use x="228" y="108" xlink:href="#p" />
<use x="240" y="108" xlink:href="#p" />
<use x="252" y="108" xlink:href="#p" />
<use x="264" y="108" xlink:href="#p" />
<use x="276" y="108" xlink:href="#p" />
<use x="288" y="108" xlink:href="#p" />
<use x="300" y="108" xlink:href="#p" />
<use x="312" y="108" xlink:href="#p" />
<use x="324" y="108" xlink:href="#p" />
<use x="348" y="108" xlink:href="#p" />
<use x="384" y="108" xlink:href="#p" />
<use x="408" y="108" xlink:href="#p" />
<use x="528" y="108" xlink:href="#p" />
<use x="540" y="108" xlink:href="#p" />
<use x="552" y="108" xlink:href="#p" />
<use x="576" y="108" xlink:href="#p" />
<use x="588" y="108" xlink:href="#p" />
<use x="12" y="120" xlink:href="#p" />
<use x="24" y="120" xlink:href="#p" />
<use x="36" y="120" xlink:href="#p" />
<use x="48" y="120" xlink:href="#p" />
<use x="60" y="120" xlink:href="#p" />
<use x="120" y="120" xlink:href="#p" />
<use x="132" y="120" xlink:href="#p" />
<use x="180" y="120" xlink:href="#p" />
<use x="204" y="120" xlink:href="#p" />
<use x="228" y="120" xlink:href="#p" />
<use x="264" y="120" xlink:href="#p" />
<use x="312" y="120" xlink:href="#p" />
<use x="324" y="120" xlink:href="#p" />
<use x="348" y="120" xlink:href="#p" />
<use x="360" y="120" xlink:href="#p" />
<use x="372" y="120" xlink:href="#p" />
<use x="432" y="120" xlink:href="#p" />
<use x="444" y="120" xlink:href="#p" />
<use x="528" y="120" xlink:href="#p" />
<use x="552" y="120" xlink:href="#p" />
<use x="576" y="120" xlink:href="#p" />
<use x="588" y="120" xlink:href="#p" />
<use x="24" y="132" xlink:href="#p" />
<use x="48" y="132" xlink:href="#p" />
<use x="72" y="132" xlink:href="#p" />
<use x="84" y="132" xlink:href="#p" />
<use x="144" y="132" xlink:href="#p" />
<use x="168" y="132" xlink:href="#p" />
<use x="204" y="132" xlink:href="#p" />
<use x="240" y="132" xlink:href="#p" />
<use x="252" y="132" xlink:href="#p" />
<use x="264" y="132" xlink:href="#p" />
<use x="288" y="132" xlink:href="#p" />
<use x="300" y="132" xlink:href="#p" />
<use x="336" y="132" xlink:href="#p" />
<use x="360" y="132" xlink:href="#p" />
<use x="384" y="132" xlink:href="#p" />
<use x="408" y="132" xlink:href="#p" />
<use x="420" y="132" xlink:href="#p" />
<use x="432" y="132" xlink:href="#p" />
<use x="456" y="132" xlink:href="#p" />
<use x="480" y="132" xlink:href="#p" />
<use x="492" y="132" xlink:href="#p" />
<use x="504" y="132" xlink:href="#p" />
<use x="516" y="132" xlink:href="#p" />
<use x="528" y="132" xlink:href="#p" />
<use x="540" y="132" xlink:href="#p" />
<use x="552" y="132" xlink:href="#p" />
<use x="564" y="132" xlink:href="#p" />
<use x="576" y="132" xlink:href="#p" />
<use x="588" y="132" xlink:href="#p" />
<use x="48" y="144" xlink:href="#p" />
<use x="60" y="144" xlink:href="#p" />
<use x="72" y="144" xlink:href="#p" />
<use x="96" y="144" xlink:href="#p" />
<use x="144" y="144" xlink:href="#p" />
<use x="156" y="144" xlink:href="#p" />
<use x="192" y="144" xlink:href="#p" />
<use x="252" y="144" xlink:href="#p" />
<use x="288" y="144" xlink:href="#p" />
<use x="300" y="144" xlink:href="#p" />
<use x="336" y="144" xlink:href="#p" />
<use x="348" y="144" xlink:href="#p" />
<use x="360" y="144" xlink:href="#p" />
<use x="372" y="144" xlink:href="#p" />
<use x="384" y="144" xlink:href="#p" />
<use x="396" y="144" xlink:href="#p" />
<use x="432" y="144" xlink:href="#p" />
<use x="444" y="144" xlink:href="#p" />
<use x="456" y="144" xlink:href="#p" />
<use x="468" y="144" xlink:href="#p" />
<use x="492" y="144" xlink:href="#p" />
<use x="504" y="144" xlink:href="#p" />
<use x="528" y="144" xlink:href="#p" />
<use x="576" y="144" xlink:href="#p" />
<use x="12" y="156" xlink:href="#p" />
<use x="24" y="156" xlink:href="#p" />
<use x="36" y="156" xlink:href="#p" />
<use x="84" y="156" xlink:href="#p" />
<use x="108" y="156" xlink:href="#p" />
<use x="132" y="156" xlink:href="#p" />
<use x="156" y="156" xlink:href="#p" />
<use x="168" y="156" xlink:href="#p" />
<use x="192" y="156" xlink:href="#p" />
<use x="204" y="156" xlink:href="#p" />
<use x="228" y="156" xlink:href="#p" />
<use x="264" y="156" xlink:href="#p" />
<use x="276" y="156" xlink:href="#p" />
<use x="300" y="156" xlink:href="#p" />
<use x="312" y="156" xlink:href="#p" />
<use x="336" y="156" xlink:href="#p" />
<use x="360" y="156" xlink:href="#p" />
<use x="384" y="156" xlink:href="#p" />
<use x="396" y="156" xlink:href="#p" />
<use x="444" y="156" xlink:href="#p" />
<use x="504" y="156" xlink:href="#p" />
<use x="516" y="156" xlink:href="#p" />
<use x="528" y="156" xlink:href="#p" />
<use x="540" y="156" xlink:href="#p" />
<use x="576" y="156" xlink:href="#p" />
<use x="48" y="168" xlink:href="#p" />
<use x="108" y="168" xlink:href="#p" />
<use x="144" y="168" xlink:href="#p" />
<use x="156" y="168" xlink:href="#p" />
<use x="168" y="168" xlink:href="#p" />
<use x="216" y="168" xlink:href="#p" />
<use x="264" y="168" xlink:href="#p" />
<use x="276" y="168" xlink:href="#p" />
<use x="288" y="168" xlink:href="#p" />
<use x="312" y="168" xlink:href="#p" />
<use x="324" y="168" xlink:href="#p" />
<use x="372" y="168" xlink:href="#p" />
<use x="396" y="168" xlink:href="#p" />
<use x="408" y="168" xlink:href="#p" />
<use x="420" y="168" xlink:href="#p" />
<use x="432" y="168" xlink:href="#p" />
<use x="444" y="168" xlink:href="#p" />
<use x="456" y="168" xlink:href="#p" />
<use x="480" y="168" xlink:href="#p" />
<use x="492" y="168" xlink:href="#p" />
<use x="552" y="168" xlink:href="#p" />
<use x="564" y="168" xlink:href="#p" />
<use x="588" y="168" xlink:href="#p" />
<use x="36" y="180" xlink:href="#p" />
<use x="60" y="180" xlink:href="#p" />
<use x="72" y="180" xlink:href="#p" />
<use x="84" y="180" xlink:href="#p" />
<use x="120" y="180" xlink:href="#p" />
<use x="132" y="180" xlink:href="#p" />
<use x="144" y="180" xlink:href="#p" />
<use x="156" y="180" xlink:href="#p" />
<use x="168" y="180" xlink:href="#p" />
<use x="192" y="180" xlink:href="#p" />
<use x="204" y="180" xlink:href="#p" />
<use x="216" y="180" xlink:href="#p" />
<use x="228" y="180" xlink:href="#p" />
<use x="252" y="180" xlink:href="#p" />
<use x="300" y="180" xlink:href="#p" />
<use x="312" y="180" xlink:href="#p" />
<use x="348" y="180" xlink:href="#p" />
<use x="360" y="180" xlink:href="#p" />
<use x="384" y="180" xlink:href="#p" />
<use x="408" y="180" xlink:href="#p" />
<use x="432" y="180" xlink:href="#p" />
<use x="456" y="180" xlink:href="#p" />
<use x="468" y="180" xlink:href="#p" />
<use x="480" y="180" xlink:href="#p" />
<use x="504" y="180" xlink:href="#p" />
<use x="528" y="180" xlink:href="#p" />
<use x="552" y="180" xlink:href="#p" />
<use x="564" y="180" xlink:href="#p" />
<use x="588" y="180" xlink:href="#p" />
<use x="36" y="192" xlink:href="#p" />
<use x="60" y="192" xlink:href="#p" />
<use x="72" y="192" xlink:href="#p" />
<use x="96" y="192" xlink:href="#p" />
<use x="108" y="192" xlink:href="#p" />
<use x="120" y="192" xlink:href="#p" />
<use x="144" y="192" xlink:href="#p" />
<use x="156" y="192" xlink:href="#p" />
<use x="168" y="192" xlink:href="#p" />
<use x="180" y="192" xlink:href="#p" />
<use x="252" y="192" xlink:href="#p" />
<use x="312" y="192" xlink:href="#p" />
<use x="324" y="192" xlink:href="#p" />
<use x="336" y="192" xlink:href="#p" />
<use x="348" y="192" xlink:href="#p" />
<use x="408" y="192" xlink:href="#p" />
<use x="456" y="192" xlink:href="#p" />
<use x="492" y="192" xlink:href="#p" />
<use x="516" y="192" xlink:href="#p" />
<use x="528" y="192" xlink:href="#p" />
<use x="540" y="192" xlink:href="#p" />
<use x="552" y="192" xlink:href="#p" />
<use x="588" y="192" xlink:href="#p" />
<use x="72" y="204" xlink:href="#p" />
<use x="84" y="204" xlink:href="#p" />
<use x="120" y="204" xlink:href="#p" />
<use x="144" y="204" xlink:href="#p" />
<use x="156" y="204" xlink:href="#p" />
<use x="168" y="204" xlink:href="#p" />
<use x="180" y="204" xlink:href="#p" />
<use x="192" y="204" xlink:href="#p" />
<use x="216" y="204" xlink:href="#p" />
<use x="228" y="204" xlink:href="#p" />
<use x="252" y="204" xlink:href="#p" />
<use x="264" y="204" xlink:href="#p" />
<use x="276" y="204" xlink:href="#p" />
<use x="288" y="204" xlink:href="#p" />
<use x="324" y="204" xlink:href="#p" />
<use x="336" y="204" xlink:href="#p" />
<use x="360" y="204" xlink:href="#p" />
<use x="408" y="204" xlink:href="#p" />
<use x="432" y="204" xlink:href="#p" />
<use x="444" y="204" xlink:href="#p" />
<use x="468" y="204" xlink:href="#p" />
<use x="540" y="204" xlink:href="#p" />
<use x="552" y="204" xlink:href="#p" />
<use x="576" y="204" xlink:href="#p" />
<use x="588" y="204" xlink:href="#p" />
<use x="12" y="216" xlink:href="#p" />
<use x="24" y="216" xlink:href="#p" />
<use x="36" y="216" xlink:href="#p" />
<use x="108" y="216" xlink:href="#p" />
<use x="156" y="216" xlink:href="#p" />
<use x="204" y="216" xlink:href="#p" />
<use x="228" y="216" xlink:href="#p" />
<use x="240" y="216" xlink:href="#p" />
<use x="252" y="216" xlink:href="#p" />
<use x="276" y="216" xlink:href="#p" />
<use x="300" y="216" xlink:href="#p" />
<use x="312" y="216" xlink:href="#p" />
<use x="324" y="216" xlink:href="#p" />
<use x="396" y="216" xlink:href="#p" />
<use x="408" y="216" xlink:href="#p" />
<use x="432" y="216" xlink:href="#p" />
<use x="456" y="216" xlink:href="#p" />
<use x="468" y="216" xlink:href="#p" />
<use x="492" y="216" xlink:href="#p" />
<use x="504" y="216" xlink:href="#p" />
<use x="516" y="216" xlink:href="#p" />
<use x="552" y="216" xlink:href="#p" />
<use x="564" y="216" xlink:href="#p" />
<use x="576" y="216" xlink:href="#p" />
<use x="588" y="216" xlink:href="#p" />
<use x="12" y="228" xlink:href="#p" />
<use x="24" y="228" xlink:href="#p" />
<use x="36" y="228" xlink:href="#p" />
<use x="48" y="228" xlink:href="#p" />
<use x="84" y="228" xlink:href="#p" />
<use x="96" y="228" xlink:href="#p" />
<use x="132" y="228" xlink:href="#p" />
<use x="144" y="228" xlink:href="#p" />
<use x="168" y="228" xlink:href="#p" />
<use x="180" y="228" xlink:href="#p" />
<use x="204" y="228" xlink:href="#p" />
<use x="264" y="228" xlink:href="#p" />
<use x="276" y="228" xlink:href="#p" />
<use x="288" y="228" xlink:href="#p" />
<use x="312" y="228" xlink:href="#p" />
<use x="336" y="228" xlink:href="#p" />
<use x="348" y="228" xlink:href="#p" />
<use x="384" y="228" xlink:href="#p" />
<use x="408" y="228" xlink:href="#p" />
<use x="420" y="228" xlink:href="#p" />
<use x="432" y="228" xlink:href="#p" />
<use x="444" y="228" xlink:href="#p" />
<use x="456" y="228" xlink:href="#p" />
<use x="468" y="228" xlink:href="#p" />
<use x="516" y="228" xlink:href="#p" />
<use x="540" y="228" xlink:href="#p" />
<use x="564" y="228" xlink:href="#p" />
<use x="576" y="228" xlink:href="#p" />
<use x="588" y="228" xlink:href="#p" />
<use x="24" y="240" xlink:href="#p" />
<use x="36" y="240" xlink:href="#p" />
<use x="60" y="240" xlink:href="#p" />
<use x="96" y="240" xlink:href="#p" />
<use x="132" y="240" xlink:href="#p" />
<use x="156" y="240" xlink:href="#p" />
<use x="180" y="240" xlink:href="#p" />
<use x="204" y="240" xlink:href="#p" />
<use x="216" y="240" xlink:href="#p" />
<use x="228" y="240" xlink:href="#p" />
<use x="240" y="240" xlink:href="#p" />
<use x="264" y="240" xlink:href="#p" />
<use x="276" y="240" xlink:href="#p" />
<use x="288" y="240" xlink:href="#p" />
<use x="300" y="240" xlink:href="#p" />
<use x="312" y="240" xlink:href="#p" />
<use x="324" y="240" xlink:href="#p" />
<use x="348" y="240" xlink:href="#p" />
<use x="360" y="240" xlink:href="#p" />
<use x="396" y="240" xlink:href="#p" />
<use x="432" y="240" xlink:href="#p" />
<use x="444" y="240" xlink:href="#p" />
<use x="456" y="240" xlink:href="#p" />
<use x="468" y="240" xlink:href="#p" />
<use x="504" y="240" xlink:href="#p" />
<use x="528" y="240" xlink:href="#p" />
<use x="540" y="240" xlink:href="#p" />
<use x="564" y="240" xlink:href="#p" />
<use x="24" y="252" xlink:href="#p" />
<use x="72" y="252" xlink:href="#p" />
<use x="84" y="252" xlink:href="#p" />
<use x="108" y="252" xlink:href="#p" />
<use x="132" y="252" xlink:href="#p" />
<use x="156" y="252" xlink:href="#p" />
<use x="180" y="252" xlink:href="#p" />
<use x="240" y="252" xlink:href="#p" />
<use x="264" y="252" xlink:href="#p" />
<use x="276" y="252" xlink:href="#p" />
<use x="288" y="252" xlink:href="#p" />
<use x="372" y="252" xlink:href="#p" />
<use x="444" y="252" xlink:href="#p" />
<use x="456" y="252" xlink:href="#p" />
<use x="468" y="252" xlink:href="#p" />
<use x="480" y="252" xlink:href="#p" />
<use x="504" y="252" xlink:href="#p" />
<use x="516" y="252" xlink:href="#p" />
<use x="528" y="252" xlink:href="#p" />
<use x="552" y="252" xlink:href="#p" />
<use x="588" y="252" xlink:href="#p" />
<use x="12" y="264" xlink:href="#p" />
<use x="36" y="264" xlink:href="#p" />
<use x="72" y="264" xlink:href="#p" />
<use x="108" y="264" xlink:href="#p" />
<use x="168" y="264" xlink:href="#p" />
<use x="180" y="264" xlink:href="#p" />
<use x="192" y="264" xlink:href="#p" />
<use x="204" y="264" xlink:href="#p" />
<use x="228" y="264" xlink:href="#p" />
<use x="252" y="264" xlink:href="#p" />
<use x="264" y="264" xlink:href="#p" />
<use x="288" y="264" xlink:href="#p" />
<use x="336" y="264" xlink:href="#p" />
<use x="348" y="264" xlink:href="#p" />
<use x="432" y="264" xlink:href="#p" />
<use x="504" y="264" xlink:href="#p" />
<use x="528" y="264" xlink:href="#p" />
<use x="552" y="264" xlink:href="#p" />
<use x="576" y="264" xlink:href="#p" />
<use x="588" y="264" xlink:href="#p" />
<use x="60" y="276" xlink:href="#p" />
<use x="72" y="276" xlink:href="#p" />
<use x="84" y="276" xlink:href="#p" />
<use x="96" y="276" xlink:href="#p" />
<use x="108" y="276" xlink:href="#p" />
<use x="144" y="276" xlink:href="#p" />
<use x="156" y="276" xlink:href="#p" />
<use x="204" y="276" xlink:href="#p" />
<use x="216" y="276" xlink:href="#p" />
<use x="240" y="276" xlink:href="#p" />
<use x="252" y="276" xlink:href="#p" />
<use x="264" y="276" xlink:href="#p" />
<use x="276" y="276" xlink:href="#p" />
<use x="288" y="276" xlink:href="#p" />
<use x="300" y="276" xlink:href="#p" />
<use x="312" y="276" xlink:href="#p" />
<use x="324" y="276" xlink:href="#p" />
<use x="372" y="276" xlink:href="#p" />
<use x="408" y="276" xlink:href="#p" />
<use x="420" y="276" xlink:href="#p" />
<use x="444" y="276" xlink:href="#p" />
<use x="480" y="276" xlink:href="#p" />
<use x="492" y="276" xlink:href="#p" />
<use x="504" y="276" xlink:href="#p" />
<use x="516" y="276" xlink:href="#p" />
<use x="528" y="276" xlink:href="#p" />
<use x="540" y="276" xlink:href="#p" />
<use x="564" y="276" xlink:href="#p" />
<use x="576" y="276" xlink:href="#p" />
<use x="588" y="276" xlink:href="#p" />
<use x="12" y="288" xlink:href="#p" />
<use x="48" y="288" xlink:href="#p" />
<use x="60" y="288" xlink:href="#p" />
<use x="108" y="288" xlink:href="#p" />
<use x="120" y="288" xlink:href="#p" />
<use x="132" y="288" xlink:href="#p" />
<use x="144" y="288" xlink:href="#p" />
<use x="156" y="288" xlink:href="#p" />
<use x="168" y="288" xlink:href="#p" />
<use x="180" y="288" xlink:href="#p" />
<use x="192" y="288" xlink:href="#p" />
<use x="204" y="288" xlink:href="#p" />
<use x="228" y="288" xlink:href="#p" />
<use x="252" y="288" xlink:href="#p" />
<use x="276" y="288" xlink:href="#p" />
<use x="324" y="288" xlink:href="#p" />
<use x="360" y="288" xlink:href="#p" />
<use x="372" y="288" xlink:href="#p" />
<use x="384" y="288" xlink:href="#p" />
<use x="396" y="288" xlink:href="#p" />
<use x="408" y="288" xlink:href="#p" />
<use x="444" y="288" xlink:href="#p" />
<use x="468" y="288" xlink:href="#p" />
<use x="492" y="288" xlink:href="#p" />
<use x="540" y="288" xlink:href="#p" />
<use x="552" y="288" xlink:href="#p" />
<use x="576" y="288" xlink:href="#p" />
<use x="588" y="288" xlink:href="#p" />
<use x="36" y="300" xlink:href="#p" />
<use x="60" y="300" xlink:href="#p" />
<use x="84" y="300" xlink:href="#p" />
<use x="108" y="300" xlink:href="#p" />
<use x="120" y="300" xlink:href="#p" />
<use x="168" y="300" xlink:href="#p" />
<use x="192" y="300" xlink:href="#p" />
<use x="216" y="300" xlink:href="#p" />
<use x="252" y="300" xlink:href="#p" />
<use x="264" y="300" xlink:href="#p" />
<use x="276" y="300" xlink:href="#p" />
<use x="300" y="300" xlink:href="#p" />
<use x="324" y="300" xlink:href="#p" />
<use x="360" y="300" xlink:href="#p" />
<use x="372" y="300" xlink:href="#p" />
<use x="384" y="300" xlink:href="#p" />
<use x="420" y="300" xlink:href="#p" />
<use x="432" y="300" xlink:href="#p" />
<use x="444" y="300" xlink:href="#p" />
<use x="456" y="300" xlink:href="#p" />
<use x="480" y="300" xlink:href="#p" />
<use x="492" y="300" xlink:href="#p" />
<use x="516" y="300" xlink:href="#p" />
<use x="540" y="300" xlink:href="#p" />
<use x="588" y="300" xlink:href="#p" />
<use x="12" y="312" xlink:href="#p" />
<use x="36" y="312" xlink:href="#p" />
<use x="48" y="312" xlink:href="#p" />
<use x="60" y="312" xlink:href="#p" />
<use x="108" y="312" xlink:href="#p" />
<use x="120" y="312" xlink:href="#p" />
<use x="132" y="312" xlink:href="#p" />
<use x="156" y="312" xlink:href="#p" />
<use x="168" y="312" xlink:href="#p" />
<use x="192" y="312" xlink:href="#p" />
<use x="264" y="312" xlink:href="#p" />
<use x="276" y="312" xlink:href="#p" />
<use x="324" y="312" xlink:href="#p" />
<use x="348" y="312" xlink:href="#p" />
<use x="360" y="312" xlink:href="#p" />
<use x="372" y="312" xlink:href="#p" />
<use x="396" y="312" xlink:href="#p" />
<use x="420" y="312" xlink:href="#p" />
<use x="432" y="312" xlink:href="#p" />
<use x="456" y="312" xlink:href="#p" />
<use x="492" y="312" xlink:href="#p" />
<use x="540" y="312" xlink:href="#p" />
<use x="564" y="312" xlink:href="#p" />
<use x="576" y="312" xlink:href="#p" />
<use x="36" y="324" xlink:href="#p" />
<use x="60" y="324" xlink:href="#p" />
<use x="72" y="324" xlink:href="#p" />
<use x="84" y="324" xlink:href="#p" />
<use x="96" y="324" xlink:href="#p" />
<use x="108" y="324" xlink:href="#p" />
<use x="180" y="324" xlink:href="#p" />
<use x="192" y="324" xlink:href="#p" />
<use x="216" y="324" xlink:href="#p" />
<use x="252" y="324" xlink:href="#p" />
<use x="276" y="324" xlink:href="#p" />
<use x="288" y="324" xlink:href="#p" />
<use x="300" y="324" xlink:href="#p" />
<use x="312" y="324" xlink:href="#p" />
<use x="324" y="324" xlink:href="#p" />
<use x="336" y="324" xlink:href="#p" />
<use x="360" y="324" xlink:href="#p" />
<use x="384" y="324" xlink:href="#p" />
<use x="396" y="324" xlink:href="#p" />
<use x="408" y="324" xlink:href="#p" />
<use x="444" y="324" xlink:href="#p" />
<use x="468" y="324" xlink:href="#p" />
<use x="492" y="324" xlink:href="#p" />
<use x="504" y="324" xlink:href="#p" />
<use x="516" y="324" xlink:href="#p" />
<use x="528" y="324" xlink:href="#p" />
<use x="540" y="324" xlink:href="#p" />
<use x="552" y="324" xlink:href="#p" />
<use x="564" y="324" xlink:href="#p" />
<use x="12" y="336" xlink:href="#p" />
<use x="24" y="336" xlink:href="#p" />
<use x="48" y="336" xlink:href="#p" />
<use x="108" y="336" xlink:href="#p" />
<use x="120" y="336" xlink:href="#p" />
<use x="144" y="336" xlink:href="#p" />
<use x="168" y="336" xlink:href="#p" />
<use x="180" y="336" xlink:href="#p" />
<use x="192" y="336" xlink:href="#p" />
<use x="204" y="336" xlink:href="#p" />
<use x="264" y="336" xlink:href="#p" />
<use x="276" y="336" xlink:href="#p" />
<use x="300" y="336" xlink:href="#p" />
<use x="360" y="336" xlink:href="#p" />
<use x="408" y="336" xlink:href="#p" />
<use x="420" y="336" xlink:href="#p" />
<use x="444" y="336" xlink:href="#p" />
<use x="456" y="336" xlink:href="#p" />
<use x="492" y="336" xlink:href="#p" />
<use x="516" y="336" xlink:href="#p" />
<use x="576" y="336" xlink:href="#p" />
<use x="588" y="336" xlink:href="#p" />
<use x="24" y="348" xlink:href="#p" />
<use x="36" y="348" xlink:href="#p" />
<use x="48" y="348" xlink:href="#p" />
<use x="60" y="348" xlink:href="#p" />
<use x="72" y="348" xlink:href="#p" />
<use x="84" y="348" xlink:href="#p" />
<use x="108" y="348" xlink:href="#p" />
<use x="120" y="348" xlink:href="#p" />
<use x="132" y="348" xlink:href="#p" />
<use x="192" y="348" xlink:href="#p" />
<use x="204" y="348" xlink:href="#p" />
<use x="360" y="348" xlink:href="#p" />
<use x="372" y="348" xlink:href="#p" />
<use x="384" y="348" xlink:href="#p" />
<use x="396" y="348" xlink:href="#p" />
<use x="408" y="348" xlink:href="#p" />
<use x="432" y="348" xlink:href="#p" />
<use x="444" y="348" xlink:href="#p" />
<use x="468" y="348" xlink:href="#p" />
<use x="492" y="348" xlink:href="#p" />
<use x="504" y="348" xlink:href="#p" />
<use x="540" y="348" xlink:href="#p" />
<use x="564" y="348" xlink:href="#p" />
<use x="576" y="348" xlink:href="#p" />
<use x="12" y="360" xlink:href="#p" />
<use x="24" y="360" xlink:href="#p" />
<use x="36" y="360" xlink:href="#p" />
<use x="72" y="360" xlink:href="#p" />
<use x="108" y="360" xlink:href="#p" />
<use x="120" y="360" xlink:href="#p" />
<use x="144" y="360" xlink:href="#p" />
<use x="156" y="360" xlink:href="#p" />
<use x="204" y="360" xlink:href="#p" />
<use x="228" y="360" xlink:href="#p" />
<use x="240" y="360" xlink:href="#p" />
<use x="300" y="360" xlink:href="#p" />
<use x="312" y="360" xlink:href="#p" />
<use x="348" y="360" xlink:href="#p" />
<use x="360" y="360" xlink:href="#p" />
<use x="396" y="360" xlink:href="#p" />
<use x="432" y="360" xlink:href="#p" />
<use x="444" y="360" xlink:href="#p" />
<use x="468" y="360" xlink:href="#p" />
<use x="504" y="360" xlink:href="#p" />
<use x="516" y="360" xlink:href="#p" />
<use x="528" y="360" xlink:href="#p" />
<use x="540" y="360" xlink:href="#p" />
<use x="552" y="360" xlink:href="#p" />
<use x="588" y="360" xlink:href="#p" />
<use x="36" y="372" xlink:href="#p" />
<use x="48" y="372" xlink:href="#p" />
<use x="60" y="372" xlink:href="#p" />
<use x="72" y="372" xlink:href="#p" />
<use x="84" y="372" xlink:href="#p" />
<use x="120" y="372" xlink:href="#p" />
<use x="156" y="372" xlink:href="#p" />
<use x="168" y="372" xlink:href="#p" />
<use x="180" y="372" xlink:href="#p" />
<use x="192" y="372" xlink:href="#p" />
<use x="264" y="372" xlink:href="#p" />
<use x="276" y="372" xlink:href="#p" />
<use x="300" y="372" xlink:href="#p" />
<use x="336" y="372" xlink:href="#p" />
<use x="348" y="372" xlink:href="#p" />
<use x="372" y="372" xlink:href="#p" />
<use x="396" y="372" xlink:href="#p" />
<use x="432" y="372" xlink:href="#p" />
<use x="444" y="372" xlink:href="#p" />
<use x="492" y="372" xlink:href="#p" />
<use x="504" y="372" xlink:href="#p" />
<use x="516" y="372" xlink:href="#p" />
<use x="528" y="372" xlink:href="#p" />
<use x="540" y="372" xlink:href="#p" />
<use x="552" y="372" xlink:href="#p" />
<use x="564" y="372" xlink:href="#p" />
<use x="576" y="372" xlink:href="#p" />
<use x="588" y="372" xlink:href="#p" />
<use x="12" y="384" xlink:href="#p" />
<use x="36" y="384" xlink:href="#p" />
<use x="72" y="384" xlink:href="#p" />
<use x="108" y="384" xlink:href="#p" />
<use x="132" y="384" xlink:href="#p" />
<use x="192" y="384" xlink:href="#p" />
<use x="204" y="384" xlink:href="#p" />
<use x="228" y="384" xlink:href="#p" />
<use x="240" y="384" xlink:href="#p" />
<use x="252" y="384" xlink:href="#p" />
<use x="264" y="384" xlink:href="#p" />
<use x="276" y="384" xlink:href="#p" />
<use x="312" y="384" xlink:href="#p" />
<use x="324" y="384" xlink:href="#p" />
<use x="336" y="384" xlink:href="#p" />
<use x="348" y="384" xlink:href="#p" />
<use x="384" y="384" xlink:href="#p" />
<use x="408" y="384" xlink:href="#p" />
<use x="420" y="384" xlink:href="#p" />
<use x="504" y="384" xlink:href="#p" />
<use x="516" y="384" xlink:href="#p" />
<use x="564" y="384" xlink:href="#p" />
<use x="576" y="384" xlink:href="#p" />
<use x="588" y="384" xlink:href="#p" />
<use x="36" y="396" xlink:href="#p" />
<use x="48" y="396" xlink:href="#p" />
<use x="72" y="396" xlink:href="#p" />
<use x="84" y="396" xlink:href="#p" />
<use x="108" y="396" xlink:href="#p" />
<use x="144" y="396" xlink:href="#p" />
<use x="156" y="396" xlink:href="#p" />
<use x="240" y="396" xlink:href="#p" />
<use x="264" y="396" xlink:href="#p" />
<use x="288" y="396" xlink:href="#p" />
<use x="324" y="396" xlink:href="#p" />
<use x="348" y="396" xlink:href="#p" />
<use x="408" y="396" xlink:href="#p" />
<use x="420" y="396" xlink:href="#p" />
<use x="432" y="396" xlink:href="#p" />
<use x="444" y="396" xlink:href="#p" />
<use x="456" y="396" xlink:href="#p" />
<use x="516" y="396" xlink:href="#p" />
<use x="540" y="396" xlink:href="#p" />
<use x="552" y="396" xlink:href="#p" />
<use x="588" y="396" xlink:href="#p" />
<use x="12" y="408" xlink:href="#p" />
<use x="48" y="408" xlink:href="#p" />
<use x="72" y="408" xlink:href="#p" />
<use x="96" y="408" xlink:href="#p" />
<use x="108" y="408" xlink:href="#p" />
<use x="156" y="408" xlink:href="#p" />
<use x="168" y="408" xlink:href="#p" />
<use x="180" y="408" xlink:href="#p" />
<use x="204" y="408" xlink:href="#p" />
<use x="216" y="408" xlink:href="#p" />
<use x="228" y="408" xlink:href="#p" />
<use x="252" y="408" xlink:href="#p" />
<use x="264" y="408" xlink:href="#p" />
<use x="276" y="408" xlink:href="#p" />
<use x="312" y="408" xlink:href="#p" />
<use x="336" y="408" xlink:href="#p" />
<use x="372" y="408" xlink:href="#p" />
<use x="492" y="408" xlink:href="#p" />
<use x="552" y="408" xlink:href="#p" />
<use x="588" y="408" xlink:href="#p" />
<use x="24" y="420" xlink:href="#p" />
<use x="48" y="420" xlink:href="#p" />
<use x="72" y="420" xlink:href="#p" />
<use x="84" y="420" xlink:href="#p" />
<use x="132" y="420" xlink:href="#p" />
<use x="216" y="420" xlink:href="#p" />
<use x="240" y="420" xlink:href="#p" />
<use x="276" y="420" xlink:href="#p" />
<use x="288" y="420" xlink:href="#p" />
<use x="384" y="420" xlink:href="#p" />
<use x="396" y="420" xlink:href="#p" />
<use x="408" y="420" xlink:href="#p" />
<use x="420" y="420" xlink:href="#p" />
<use x="444" y="420" xlink:href="#p" />
<use x="480" y="420" xlink:href="#p" />
<use x="516" y="420" xlink:href="#p" />
<use x="528" y="420" xlink:href="#p" />
<use x="540" y="420" xlink:href="#p" />
<use x="552" y="420" xlink:href="#p" />
<use x="588" y="420" xlink:href="#p" />
<use x="24" y="432" xlink:href="#p" />
<use x="36" y="432" xlink:href="#p" />
<use x="108" y="432" xlink:href="#p" />
<use x="120" y="432" xlink:href="#p" />
<use x="144" y="432" xlink:href="#p" />
<use x="180" y="432" xlink:href="#p" />
<use x="192" y="432" xlink:href="#p" />
<use x="216" y="432" xlink:href="#p" />
<use x="228" y="432" xlink:href="#p" />
<use x="252" y="432" xlink:href="#p" />
<use x="276" y="432" xlink:href="#p" />
<use x="312" y="432" xlink:href="#p" />
<use x="324" y="432" xlink:href="#p" />
<use x="336" y="432" xlink:href="#p" />
<use x="348" y="432" xlink:href="#p" />
<use x="372" y="432" xlink:href="#p" />
<use x="384" y="432" xlink:href="#p" />
<use x="396" y="432" xlink:href="#p" />
<use x="432" y="432" xlink:href="#p" />
<use x="444" y="432" xlink:href="#p" />
<use x="456" y="432" xlink:href="#p" />
<use x="504" y="432" xlink:href="#p" />
<use x="516" y="432" xlink:href="#p" />
<use x="540" y="432" xlink:href="#p" />
<use x="588" y="432" xlink:href="#p" />
<use x="24" y="444" xlink:href="#p" />
<use x="60" y="444" xlink:href="#p" />
<use x="72" y="444" xlink:href="#p" />
<use x="84" y="444" xlink:href="#p" />
<use x="96" y="444" xlink:href="#p" />
<use x="120" y="444" xlink:href="#p" />
<use x="132" y="444" xlink:href="#p" />
<use x="144" y="444" xlink:href="#p" />
<use x="156" y="444" xlink:href="#p" />
<use x="180" y="444" xlink:href="#p" />
<use x="204" y="444" xlink:href="#p" />
<use x="276" y="444" xlink:href="#p" />
<use x="288" y="444" xlink:href="#p" />
<use x="324" y="444" xlink:href="#p" />
<use x="336" y="444" xlink:href="#p" />
<use x="348" y="444" xlink:href="#p" />
<use x="372" y="444" xlink:href="#p" />
<use x="384" y="444" xlink:href="#p" />
<use x="420" y="444" xlink:href="#p" />
<use x="432" y="444" xlink:href="#p" />
<use x="444" y="444" xlink:href="#p" />
<use x="456" y="444" xlink:href="#p" />
<use x="468" y="444" xlink:href="#p" />
<use x="504" y="444" xlink:href="#p" />
<use x="528" y="444" xlink:href="#p" />
<use x="552" y="444" xlink:href="#p" />
<use x="576" y="444" xlink:href="#p" />
<use x="12" y="456" xlink:href="#p" />
<use x="24" y="456" xlink:href="#p" />
<use x="60" y="456" xlink:href="#p" />
<use x="72" y="456" xlink:href="#p" />
<use x="120" y="456" xlink:href="#p" />
<use x="168" y="456" xlink:href="#p" />
<use x="180" y="456" xlink:href="#p" />
<use x="192" y="456" xlink:href="#p" />
<use x="204" y="456" xlink:href="#p" />
<use x="216" y="456" xlink:href="#p" />
<use x="264" y="456" xlink:href="#p" />
<use x="288" y="456" xlink:href="#p" />
<use x="312" y="456" xlink:href="#p" />
<use x="336" y="456" xlink:href="#p" />
<use x="396" y="456" xlink:href="#p" />
<use x="408" y="456" xlink:href="#p" />
<use x="420" y="456" xlink:href="#p" />
<use x="480" y="456" xlink:href="#p" />
<use x="516" y="456" xlink:href="#p" />
<use x="528" y="456" xlink:href="#p" />
<use x="576" y="456" xlink:href="#p" />
<use x="588" y="456" xlink:href="#p" />
<use x="24" y="468" xlink:href="#p" />
<use x="72" y="468" xlink:href="#p" />
<use x="84" y="468" xlink:href="#p" />
<use x="96" y="468" xlink:href="#p" />
<use x="108" y="468" xlink:href="#p" />
<use x="120" y="468" xlink:href="#p" />
<use x="144" y="468" xlink:href="#p" />
<use x="156" y="468" xlink:href="#p" />
<use x="168" y="468" xlink:href="#p" />
<use x="228" y="468" xlink:href="#p" />
<use x="252" y="468" xlink:href="#p" />
<use x="276" y="468" xlink:href="#p" />
<use x="324" y="468" xlink:href="#p" />
<use x="336" y="468" xlink:href="#p" />
<use x="360" y="468" xlink:href="#p" />
<use x="372" y="468" xlink:href="#p" />
<use x="384" y="468" xlink:href="#p" />
<use x="396" y="468" xlink:href="#p" />
<use x="420" y="468" xlink:href="#p" />
<use x="456" y="468" xlink:href="#p" />
<use x="468" y="468" xlink:href="#p" />
<use x="480" y="468" xlink:href="#p" />
<use x="492" y="468" xlink:href="#p" />
<use x="516" y="468" xlink:href="#p" />
<use x="588" y="468" xlink:href="#p" />
<use x="24" y="480" xlink:href="#p" />
<use x="36" y="480" xlink:href="#p" />
<use x="48" y="480" xlink:href="#p" />
<use x="132" y="480" xlink:href="#p" />
<use x="156" y="480" xlink:href="#p" />
<use x="168" y="480" xlink:href="#p" />
<use x="180" y="480" xlink:href="#p" />
<use x="228" y="480" xlink:href="#p" />
<use x="240" y="480" xlink:href="#p" />
<use x="252" y="480" xlink:href="#p" />
<use x="288" y="480" xlink:href="#p" />
<use x="300" y="480" xlink:href="#p" />
<use x="312" y="480" xlink:href="#p" />
<use x="324" y="480" xlink:href="#p" />
<use x="336" y="480" xlink:href="#p" />
<use x="360" y="480" xlink:href="#p" />
<use x="384" y="480" xlink:href="#p" />
<use x="396" y="480" xlink:href="#p" />
<use x="420" y="480" xlink:href="#p" />
<use x="432" y="480" xlink:href="#p" />
<use x="444" y="480" xlink:href="#p" />
<use x="468" y="480" xlink:href="#p" />
<use x="516" y="480" xlink:href="#p" />
<use x="528" y="480" xlink:href="#p" />
<use x="564" y="480" xlink:href="#p" />
<use x="588" y="480" xlink:href="#p" />
<use x="12" y="492" xlink:href="#p" />
<use x="24" y="492" xlink:href="#p" />
<use x="36" y="492" xlink:href="#p" />
<use x="84" y="492" xlink:href="#p" />
<use x="96" y="492" xlink:href="#p" />
<use x="168" y="492" xlink:href="#p" />
<use x="180" y="492" xlink:href="#p" />
<use x="192" y="492" xlink:href="#p" />
<use x="204" y="492" xlink:href="#p" />
<use x="216" y="492" xlink:href="#p" />
<use x="228" y="492" xlink:href="#p" />
<use x="240" y="492" xlink:href="#p" />
<use x="264" y="492" xlink:href="#p" />
<use x="276" y="492" xlink:href="#p" />
<use x="288" y="492" xlink:href="#p" />
<use x="300" y="492" xlink:href="#p" />
<use x="312" y="492" xlink:href="#p" />
<use x="324" y="492" xlink:href="#p" />
<use x="336" y="492" xlink:href="#p" />
<use x="348" y="492" xlink:href="#p" />
<use x="360" y="492" xlink:href="#p" />
<use x="372" y="492" xlink:href="#p" />
<use x="384" y="492" xlink:href="#p" />
<use x="396" y="492" xlink:href="#p" />
<use x="420" y="492" xlink:href="#p" />
<use x="432" y="492" xlink:href="#p" />
<use x="444" y="492" xlink:href="#p" />
<use x="456" y="492" xlink:href="#p" />
<use x="492" y="492" xlink:href="#p" />
<use x="504" y="492" xlink:href="#p" />
<use x="516" y="492" xlink:href="#p" />
<use x="528" y="492" xlink:href="#p" />
<use x="540" y="492" xlink:href="#p" />
<use x="576" y="492" xlink:href="#p" />
<use x="108" y="504" xlink:href="#p" />
<use x="120" y="504" xlink:href="#p" />
<use x="144" y="504" xlink:href="#p" />
<use x="156" y="504" xlink:href="#p" />
<use x="180" y="504" xlink:href="#p" />
<use x="228" y="504" xlink:href="#p" />
<use x="252" y="504" xlink:href="#p" />
<use x="276" y="504" xlink:href="#p" />
<use x="324" y="504" xlink:href="#p" />
<use x="372" y="504" xlink:href="#p" />
<use x="396" y="504" xlink:href="#p" />
<use x="420" y="504" xlink:href="#p" />
<use x="444" y="504" xlink:href="#p" />
<use x="480" y="504" xlink:href="#p" />
<use x="492" y="504" xlink:href="#p" />
<use x="540" y="504" xlink:href="#p" />
<use x="588" y="504" xlink:href="#p" />
<use x="12" y="516" xlink:href="#p" />
<use x="24" y="516" xlink:href="#p" />
<use x="36" y="516" xlink:href="#p" />
<use x="48" y="516" xlink:href="#p" />
<use x="60" y="516" xlink:href="#p" />
<use x="72" y="516" xlink:href="#p" />
<use x="84" y="516" xlink:href="#p" />
<use x="156" y="516" xlink:href="#p" />
<use x="180" y="516" xlink:href="#p" />
<use x="204" y="516" xlink:href="#p" />
<use x="228" y="516" xlink:href="#p" />
<use x="264" y="516" xlink:href="#p" />
<use x="276" y="516" xlink:href="#p" />
<use x="300" y="516" xlink:href="#p" />
<use x="324" y="516" xlink:href="#p" />
<use x="348" y="516" xlink:href="#p" />
<use x="360" y="516" xlink:href="#p" />
<use x="420" y="516" xlink:href="#p" />
<use x="444" y="516" xlink:href="#p" />
<use x="468" y="516" xlink:href="#p" />
<use x="480" y="516" xlink:href="#p" />
<use x="492" y="516" xlink:href="#p" />
<use x="516" y="516" xlink:href="#p" />
<use x="540" y="516" xlink:href="#p" />
<use x="564" y="516" xlink:href="#p" />
<use x="576" y="516" xlink:href="#p" />
<use x="588" y="516" xlink:href="#p" />
<use x="12" y="528" xlink:href="#p" />
<use x="84" y="528" xlink:href="#p" />
<use x="120" y="528" xlink:href="#p" />
<use x="156" y="528" xlink:href="#p" />
<use x="168" y="528" xlink:href="#p" />
<use x="192" y="528" xlink:href="#p" />
<use x="240" y="528" xlink:href="#p" />
<use x="252" y="528" xlink:href="#p" />
<use x="264" y="528" xlink:href="#p" />
<use x="276" y="528" xlink:href="#p" />
<use x="324" y="528" xlink:href="#p" />
<use x="348" y="528" xlink:href="#p" />
<use x="360" y="528" xlink:href="#p" />
<use x="372" y="528" xlink:href="#p" />
<use x="396" y="528" xlink:href="#p" />
<use x="408" y="528" xlink:href="#p" />
<use x="420" y="528" xlink:href="#p" />
<use x="444" y="528" xlink:href="#p" />
<use x="456" y="528" xlink:href="#p" />
<use x="480" y="528" xlink:href="#p" />
<use x="492" y="528" xlink:href="#p" />
<use x="540" y="528" xlink:href="#p" />
<use x="564" y="528" xlink:href="#p" />
<use x="12" y="540" xlink:href="#p" />
<use x="36" y="540" xlink:href="#p" />
<use x="48" y="540" xlink:href="#p" />
<use x="60" y="540" xlink:href="#p" />
<use x="84" y="540" xlink:href="#p" />
<use x="120" y="540" xlink:href="#p" />
<use x="132" y="540" xlink:href="#p" />
<use x="144" y="540" xlink:href="#p" />
<use x="180" y="540" xlink:href="#p" />
<use x="192" y="540" xlink:href="#p" />
<use x="228" y="540" xlink:href="#p" />
<use x="240" y="540" xlink:href="#p" />
<use x="264" y="540" xlink:href="#p" />
<use x="276" y="540" xlink:href="#p" />
<use x="288" y="540" xlink:href="#p" />
<use x="300" y="540" xlink:href="#p" />
<use x="312" y="540" xlink:href="#p" />
<use x="324" y="540" xlink:href="#p" />
<use x="348" y="540" xlink:href="#p" />
<use x="384" y="540" xlink:href="#p" />
<use x="408" y="540" xlink:href="#p" />
<use x="420" y="540" xlink:href="#p" />
<use x="444" y="540" xlink:href="#p" />
<use x="456" y="540" xlink:href="#p" />
<use x="468" y="540" xlink:href="#p" />
<use x="480" y="540" xlink:href="#p" />
<use x="492" y="540" xlink:href="#p" />
<use x="504" y="540" xlink:href="#p" />
<use x="516" y="540" xlink:href="#p" />
<use x="528" y="540" xlink:href="#p" />
<use x="540" y="540" xlink:href="#p" />
<use x="552" y="540" xlink:href="#p" />
<use x="576" y="540" xlink:href="#p" />
<use x="12" y="552" xlink:href="#p" />
<use x="36" y="552" xlink:href="#p" />
<use x="48" y="552" xlink:href="#p" />
<use x="60" y="552" xlink:href="#p" />
<use x="84" y="552" xlink:href="#p" />
<use x="108" y="552" xlink:href="#p" />
<use x="120" y="552" xlink:href="#p" />
<use x="144" y="552" xlink:href="#p" />
<use x="192" y="552" xlink:href="#p" />
<use x="300" y="552" xlink:href="#p" />
<use x="324" y="552" xlink:href="#p" />
<use x="336" y="552" xlink:href="#p" />
<use x="348" y="552" xlink:href="#p" />
<use x="360" y="552" xlink:href="#p" />
<use x="396" y="552" xlink:href="#p" />
<use x="528" y="552" xlink:href="#p" />
<use x="540" y="552" xlink:href="#p" />
<use x="564" y="552" xlink:href="#p" />
<use x="576" y="552" xlink:href="#p" />
<use x="12" y="564" xlink:href="#p" />
<use x="36" y="564" xlink:href="#p" />
<use x="48" y="564" xlink:href="#p" />
<use x="60" y="564" xlink:href="#p" />
<use x="84" y="564" xlink:href="#p" />
<use x="156" y="564" xlink:href="#p" />
<use x="180" y="564" xlink:href="#p" />
<use x="192" y="564" xlink:href="#p" />
<use x="216" y="564" xlink:href="#p" />
<use x="228" y="564" xlink:href="#p" />
<use x="240" y="564" xlink:href="#p" />
<use x="252" y="564" xlink:href="#p" />
<use x="288" y="564" xlink:href="#p" />
<use x="312" y="564" xlink:href="#p" />
<use x="336" y="564" xlink:href="#p" />
<use x="348" y="564" xlink:href="#p" />
<use x="396" y="564" xlink:href="#p" />
<use x="408" y="564" xlink:href="#p" />
<use x="420" y="564" xlink:href="#p" />
<use x="432" y="564" xlink:href="#p" />
<use x="504" y="564" xlink:href="#p" />
<use x="540" y="564" xlink:href="#p" />
<use x="564" y="564" xlink:href="#p" />
<use x="576" y="564" xlink:href="#p" />
<use x="588" y="564" xlink:href="#p" />
<use x="12" y="576" xlink:href="#p" />
<use x="84" y="576" xlink:href="#p" />
<use x="120" y="576" xlink:href="#p" />
<use x="156" y="576" xlink:href="#p" />
<use x="204" y="576" xlink:href="#p" />
<use x="216" y="576" xlink:href="#p" />
<use x="228" y="576" xlink:href="#p" />
<use x="264" y="576" xlink:href="#p" />
<use x="288" y="576" xlink:href="#p" />
<use x="312" y="576" xlink:href="#p" />
<use x="372" y="576" xlink:href="#p" />
<use x="384" y="576" xlink:href="#p" />
<use x="408" y="576" xlink:href="#p" />
<use x="432" y="576" xlink:href="#p" />
<use x="444" y="576" xlink:href="#p" />
<use x="468" y="576" xlink:href="#p" />
<use x="504" y="576" xlink:href="#p" />
<use x="540" y="576" xlink:href="#p" />
<use x="12" y="588" xlink:href="#p" />
<use x="24" y="588" xlink:href="#p" />
<use x="36" y="588" xlink:href="#p" />
<use x="48" y="588" xlink:href="#p" />
<use x="60" y="588" xlink:href="#p" />
<use x="72" y="588" xlink:href="#p" />
<use x="84" y="588" xlink:href="#p" />
<use x="120" y="588" xlink:href="#p" />
<use x="156" y="588" xlink:href="#p" />
<use x="180" y="588" xlink:href="#p" />
<use x="192" y="588" xlink:href="#p" />
<use x="204" y="588" xlink:href="#p" />
<use x="216" y="588" xlink:href="#p" />
<use x="240" y="588" xlink:href="#p" />
<use x="264" y="588" xlink:href="#p" />
<use x="276" y="588" xlink:href="#p" />
<use x="288" y="588" xlink:href="#p" />
<use x="312" y="588" xlink:href="#p" />
<use x="336" y="588" xlink:href="#p" />
<use x="348" y="588" xlink:href="#p" />
<use x="396" y="588" xlink:href="#p" />
<use x="420" y="588" xlink:href="#p" />
<use x="432" y="588" xlink:href="#p" />
<use x="444" y="588" xlink:href="#p" />
<use x="456" y="588" xlink:href="#p" />
<use x="468" y="588" xlink:href="#p" />
<use x="492" y="588" xlink:href="#p" />
<use x="576" y="588" xlink:href="#p" />
<use x="588" y="588" xlink:href="#p" />
</g>
</svg>