<?xml version="1.0" encoding="UTF-8"?>
<svg width="20px" height="20px" viewBox="0 0 20 20" version="1.1" xmlns="http://www.w3.org/2000/svg" xmlns:xlink="http://www.w3.org/1999/xlink">
    <!-- Generator: Sketch 46.2 (44496) - http://www.bohemiancoding.com/sketch -->
    <title>Group 20</title>
    <desc>Created with Sketch.</desc>
    <defs>
        <linearGradient x1="0%" y1="0%" x2="100%" y2="100%" id="linearGradient-1">
            <stop stop-color="#FE9B5B" offset="0%"></stop>
            <stop stop-color="#FD787A" offset="100%"></stop>
        </linearGradient>
        <circle id="path-2" cx="10" cy="10" r="10"></circle>
    </defs>
    <g id="Page-1" stroke="none" stroke-width="1" fill="none" fill-rule="evenodd">
        <g id="酒店频道_细节状态补充" transform="translate(-797.000000, -201.000000)">
            <g id="服务承诺" transform="translate(773.000000, 62.000000)">
                <g id="Group-20" transform="translate(24.000000, 139.000000)">
                    <g id="Oval-2" opacity="0.95">
                        <use fill="url(#linearGradient-1)" fill-rule="evenodd" xlink:href="#path-2"></use>
                        <circle stroke-opacity="0.1" stroke="#FD7F74" stroke-width="1" cx="10" cy="10" r="9.5"></circle>
                    </g>
                    <path d="M9,7 L9,5 L11,5 L11,7 L13,7 L13,8 L11,8 L11,12 L13,12 L13,13 L11,13 L11,16 L9,16 L9,13 L6.5,13 L5,13 L5,7 L6.5,7 L9,7 Z M9,8 L7,8 L7,12 L9,12 L9,8 Z M13,7 L15,7 L15,13 L13,13 L13,7 Z" id="Combined-Shape" fill="#FFFFFF"></path>
                </g>
            </g>
        </g>
    </g>
</svg>