<?xml version="1.0" encoding="UTF-8"?>
<svg width="17px" height="20px" viewBox="0 0 17 20" version="1.1" xmlns="http://www.w3.org/2000/svg" xmlns:xlink="http://www.w3.org/1999/xlink">
    <!-- Generator: Sketch 46.2 (44496) - http://www.bohemiancoding.com/sketch -->
    <title>Group 15</title>
    <desc>Created with Sketch.</desc>
    <defs>
        <linearGradient x1="0%" y1="0%" x2="100%" y2="100%" id="linearGradient-1">
            <stop stop-color="#FE9B5B" offset="0%"></stop>
            <stop stop-color="#FD787A" offset="100%"></stop>
        </linearGradient>
        <path d="M3,0.000121268461 L14,0.000121268461 L14,0.000121268461 C15.6568542,0.000121268461 17,1.34326702 17,3.00012127 L17,20 L8.53972517,16.6666869 L0,20 L0,3.00012127 L0,3.00012127 C-2.02906125e-16,1.34326702 1.34314575,0.000121268461 3,0.000121268461 Z" id="path-2"></path>
    </defs>
    <g id="Page-1" stroke="none" stroke-width="1" fill="none" fill-rule="evenodd">
        <g id="酒店频道_细节状态补充" transform="translate(-798.000000, -163.000000)">
            <g id="服务承诺" transform="translate(773.000000, 62.000000)">
                <g id="Group-15" transform="translate(25.000000, 101.000000)">
                    <g id="Rectangle-19" opacity="0.95">
                        <use fill="url(#linearGradient-1)" fill-rule="evenodd" xlink:href="#path-2"></use>
                        <path stroke-opacity="0.1" stroke="#FD7F74" stroke-width="1" d="M0.5,19.2680952 L8.54057831,16.1296142 L16.5,19.2655933 L16.5,3.00012127 C16.5,1.61940939 15.3807119,0.500121268 14,0.500121268 L3,0.500121268 C1.61928813,0.500121268 0.5,1.61940939 0.5,3.00012127 L0.5,19.2680952 Z"></path>
                    </g>
                    <text id="$" font-family="PingFangSC-Semibold, PingFang SC" font-size="12" font-weight="500" fill="#FFFFFF">
                        <tspan x="5" y="13">$</tspan>
                    </text>
                </g>
            </g>
        </g>
    </g>
</svg>