<?xml version="1.0" encoding="UTF-8"?>
<svg width="14px" height="15px" viewBox="0 0 14 15" version="1.1" xmlns="http://www.w3.org/2000/svg" xmlns:xlink="http://www.w3.org/1999/xlink">
    <!-- Generator: Sketch 46.2 (44496) - http://www.bohemiancoding.com/sketch -->
    <title>保障 (1)</title>
    <desc>Created with Sketch.</desc>
    <defs></defs>
    <g id="Page-1" stroke="none" stroke-width="1" fill="none" fill-rule="evenodd">
        <g id="酒店频道_细节状态补充" transform="translate(-773.000000, -42.000000)">
            <g id="保障-(1)" transform="translate(773.000000, 42.000000)">
                <g id="icon">
                    <path d="M13.9264315,2.27645647 C13.9264315,2.03890507 13.7700062,1.88054237 13.5353755,1.80136837 L7.35659746,0.0593786668 C7.12198126,-0.0197953374 6.80911613,-0.0197953374 6.65269082,0.0593933586 L0.473927326,1.80136837 C0.239282104,1.88055707 0.161076705,2.03890507 0.0828567934,2.27645647 C0.0828567934,2.35564517 -0.229993828,4.81024498 0.395707415,7.5815702 C0.786777947,9.2443859 1.41246468,10.6696355 2.35101654,11.8573484 C3.44599372,13.282598 4.93202691,14.3119629 6.73089622,14.9454137 C6.88733604,15.0245877 7.04374684,15.0245877 7.27839206,14.9454137 C9.07727588,14.3119629 10.5633091,13.282598 11.6582717,11.8573484 C12.5186182,10.6696355 13.2225248,9.24437121 13.6135809,7.5815702 C14.2392821,4.81024498 13.9264315,2.35563047 13.9264315,2.27645647 Z M12.5186182,7.3440335 C11.7364916,10.6696502 9.85938792,12.8866986 6.96554144,13.8368748 C4.07169496,12.8075246 2.19459123,10.6696208 1.41246468,7.3440335 C0.943203258,5.28533308 1.02140866,3.46416938 1.09962857,2.67235588 L6.96554144,1.00955487 L12.8314543,2.67237057 C12.9096742,3.46416938 12.9878941,5.36450709 12.5186182,7.3440335 Z" id="Shape" fill="#FFFFFF" fill-rule="nonzero"></path>
                    <g id="Q" transform="translate(3.000000, 3.000000)" fill="#FEFEFE">
                        <path d="M4.00027916,-7.28306304e-14 C1.84618993,-7.28306304e-14 0.0999755859,1.74621435 0.0999755859,3.89969662 C0.0999755859,6.05378585 1.84618993,7.80000019 4.00027916,7.80000019 C6.15376143,7.80000019 7.89997578,6.05378585 7.89997578,3.89969662 C7.89997578,1.74621435 6.15376143,-7.28306304e-14 4.00027916,-7.28306304e-14 M4.00027916,6.2546885 C2.69957101,6.2546885 1.64528727,5.20040476 1.64528727,3.89969662 C1.64528727,2.59959543 2.69957101,1.54470473 4.00027916,1.54470473 C5.30098731,1.54470473 6.35466409,2.59959543 6.35466409,3.89969662 C6.35466409,5.20040476 5.30098731,6.2546885 4.00027916,6.2546885" id="Combined-Shape"></path>
                        <path d="M7.65925676,7.66185685 L4.08549588,5.61398504 C4.04240195,5.58909982 4.03451152,5.53022502 4.069715,5.49562849 L5.59560408,3.96973942 C5.63080756,3.93453593 5.68968236,3.94242637 5.71396063,3.98491333 L7.76183244,7.55928117 C7.80007071,7.62543945 7.72602199,7.70009512 7.65925676,7.66185685" id="Path"></path>
                    </g>
                </g>
            </g>
        </g>
    </g>
</svg>