<?xml version="1.0" encoding="UTF-8"?>
<svg width="14px" height="14px" viewBox="0 0 14 14" version="1.1" xmlns="http://www.w3.org/2000/svg" xmlns:xlink="http://www.w3.org/1999/xlink">
    <!-- Generator: Sketch 47.1 (45422) - http://www.bohemiancoding.com/sketch -->
    <title>Shape</title>
    <desc>Created with Sketch.</desc>
    <defs></defs>
    <g id="Page-1" stroke="none" stroke-width="1" fill="none" fill-rule="evenodd">
        <g id="酒店频道_酒店" transform="translate(-396.000000, -1229.000000)" fill-rule="nonzero" fill="#4B96DE">
            <g id="精选酒店和民宿" transform="translate(229.000000, 1113.000000)">
                <g id="京都平均数据" transform="translate(1.000000, 103.000000)">
                    <path d="M172.751768,13 C169.021677,13 166,16.022561 166,19.7504188 C166,23.4774235 169.022127,26.5000155 172.749581,26.5000155 C176.478804,26.5000155 179.5,23.4774235 179.5,19.7504188 C179.499985,16.022561 176.478339,13 172.751768,13 Z M177.916215,18.8500145 L175.874946,18.8500145 C175.782224,17.5000207 175.465824,16.0344421 174.997374,15.0192906 C176.506894,15.7377869 177.619141,17.0504467 177.916215,18.8500145 Z M172.750869,14.3504281 C173.049261,14.3504281 174.174274,15.7000186 174.373786,18.8500145 L171.127098,18.8500145 C171.32706,15.7000186 172.451158,14.3504281 172.749969,14.3504281 L172.750869,14.3504281 Z M170.503061,15.0192906 C170.035495,16.0344421 169.719094,17.5000207 169.625907,18.8500145 L167.5838,18.8500145 C167.880859,17.0504467 168.993091,15.7377869 170.503061,15.0192906 Z M167.573222,20.6456115 L169.621068,20.6456115 C169.708082,21.9956053 170.027584,23.5205429 170.503511,24.551934 C168.972896,23.822875 167.851435,22.4455981 167.573222,20.6456115 Z M171.122708,20.6456115 L174.379045,20.6456115 C174.193181,23.3455991 173.051913,25.0643258 172.749566,25.0643258 C172.448971,25.0643103 171.308571,23.3455991 171.122708,20.6456115 Z M174.998242,24.5519185 C175.473269,23.5205274 175.792771,21.9955898 175.88022,20.645596 L177.927212,20.645596 C177.649015,22.4455981 176.528841,23.822875 174.998242,24.5519185 Z" id="Shape"></path>
                </g>
            </g>
        </g>
    </g>
</svg>