<?xml version="1.0" encoding="UTF-8"?>
<svg width="14px" height="14px" viewBox="0 0 14 14" version="1.1" xmlns="http://www.w3.org/2000/svg" xmlns:xlink="http://www.w3.org/1999/xlink">
    <!-- Generator: Sketch 47.1 (45422) - http://www.bohemiancoding.com/sketch -->
    <title>Group 15</title>
    <desc>Created with Sketch.</desc>
    <defs></defs>
    <g id="Page-1" stroke="none" stroke-width="1" fill="none" fill-rule="evenodd">
        <g id="酒店频道_酒店" transform="translate(-903.000000, -1229.000000)" fill="#41C074">
            <g id="精选酒店和民宿" transform="translate(229.000000, 1113.000000)">
                <g id="穷游用户数据" transform="translate(497.000000, 103.000000)">
                    <g id="Group-15" transform="translate(177.000000, 13.000000)">
                        <path d="M6.72899616,10.82025 C4.48460102,10.82025 2.6654156,8.9964 2.6654156,6.74625 C2.6654156,4.49715 4.48460102,2.67225 6.72899616,2.67225 C8.9733913,2.67225 10.7925767,4.49715 10.7925767,6.74625 C10.7925767,8.9964 8.9733913,10.82025 6.72899616,10.82025 M6.72899616,0 C3.01312404,0 0,3.02085 0,6.74625 C0,10.4727 3.01312404,13.49355 6.72899616,13.49355 C10.4459156,13.49355 13.4590396,10.4727 13.4590396,6.74625 C13.4590396,3.02085 10.4459156,0 6.72899616,0" id="Fill-28"></path>
                        <path d="M12.6486857,13.4255296 L6.48209746,9.88282956 C6.40773813,9.83977956 6.39412304,9.73792956 6.45486729,9.67807956 L9.08781614,7.03837956 C9.14856038,6.97747956 9.25014989,6.99112956 9.29204248,7.06462956 L12.8256819,13.2480796 C12.8916627,13.3625296 12.7638903,13.4916796 12.6486857,13.4255296" id="Fill-29"></path>
                    </g>
                </g>
            </g>
        </g>
    </g>
</svg>